<?xml version="1.0" encoding="UTF-8"?>
<svg version="1.1" xmlns="http://www.w3.org/2000/svg" width="200" height="200">
<path d="M0 0 C1.98 1.65 3.96 3.3 6 5 C0.19865378 12.05750549 -6.32812041 18.30338195 -12.91992188 24.6171875 C-20.28635607 31.71847613 -20.28635607 31.71847613 -23.21484375 41.2578125 C-22.33500384 47.18124176 -20.32880433 50.12401873 -15.75 53.8125 C-10.82098473 55.94093841 -6.50504437 55.43001268 -1.5 54 C-0.2625 53.505 -0.2625 53.505 1 53 C2.32 54.32 3.64 55.64 5 57 C4.33916986 59.39550925 3.54070432 60.69084131 1.3671875 61.93359375 C-5.16616963 64.61098912 -10.95661481 65.0191935 -17.5625 62.5 C-23.57230607 59.58867526 -28.56651132 54.26080656 -31 48 C-31.3359375 45.046875 -31.3359375 45.046875 -31.375 41.75 C-31.40335938 40.67234375 -31.43171875 39.5946875 -31.4609375 38.484375 C-30.44357043 30.79376973 -26.14082927 25.55323473 -20.703125 20.3125 C-20.10949158 19.72452637 -19.51585815 19.13655273 -18.90423584 18.53076172 C-17.02876678 16.67746454 -15.1398054 14.83866438 -13.25 13 C-11.96652463 11.73661437 -10.6839633 10.47229944 -9.40234375 9.20703125 C-6.27868518 6.12718493 -3.14285552 3.06024913 0 0 Z " fill="#000000" transform="translate(92,102)"/>
<path d="M0 0 C3.89214869 1.59151245 6.5681891 4.24552015 9.5 7.1640625 C10.27633789 7.93041519 10.27633789 7.93041519 11.06835938 8.71224976 C12.1601791 9.79396538 13.24931903 10.87839169 14.3359375 11.96533203 C15.98413289 13.6091748 17.64761386 15.23636793 19.3125 16.86328125 C26.33617721 23.81232325 32.42164217 30.29104915 33.3125 40.625 C33.19142169 46.62388003 31.18146639 51.64866532 27.09375 56.0546875 C20.5059633 61.97877927 16.18857031 63.43631421 7.28515625 63.3359375 C2.70956826 62.86804146 -0.13132048 61.42740676 -4 59 C-2.84826645 56.53199953 -1.95216435 54.95216435 0 53 C2.125 53.3125 2.125 53.3125 5 54 C11.05194934 55.2866655 11.05194934 55.2866655 16.75 53.4375 C20.16322487 51.14899911 22.20078678 48.7423635 24 45 C25.03573256 38.68203137 23.5849337 35.72711697 20.02783203 30.58374023 C16.00160956 25.45377246 11.28676519 20.98044174 6.625 16.4375 C5.59174622 15.4193314 4.55918883 14.40045558 3.52734375 13.38085938 C1.02619072 10.91238223 -1.48420053 8.45355881 -4 6 C-2.84826645 3.53199953 -1.95216435 1.95216435 0 0 Z " fill="#000000" transform="translate(133,76)"/>
<path d="M0 0 C2.18359375 1.1015625 2.18359375 1.1015625 5.37109375 3.1015625 C4.2193602 5.56956297 3.3232581 7.14939815 1.37109375 9.1015625 C-0.75390625 8.7890625 -0.75390625 8.7890625 -3.62890625 8.1015625 C-9.68085559 6.814897 -9.68085559 6.814897 -15.37890625 8.6640625 C-18.79213112 10.95256339 -20.82969303 13.359199 -22.62890625 17.1015625 C-23.66463881 23.41953113 -22.21383995 26.37444553 -18.65673828 31.51782227 C-14.63051581 36.64779004 -9.91567144 41.12112076 -5.25390625 45.6640625 C-4.22065247 46.6822311 -3.18809508 47.70110692 -2.15625 48.72070312 C0.34490303 51.18918027 2.85529428 53.64800369 5.37109375 56.1015625 C4.32234377 58.72343744 3.72178062 59.89527611 1.24609375 61.3515625 C0.62734375 61.5990625 0.00859375 61.8465625 -0.62890625 62.1015625 C-4.27158573 58.55840978 -7.90042349 55.00182438 -11.51757812 51.43261719 C-12.74766917 50.22253287 -13.98134029 49.01607592 -15.21875 47.81347656 C-17.00584267 46.07538482 -18.77927577 44.32427214 -20.55078125 42.5703125 C-21.09885437 42.04288452 -21.64692749 41.51545654 -22.21160889 40.9720459 C-27.60449854 35.58228813 -31.27837488 29.16772634 -31.94140625 21.4765625 C-31.82032794 15.47768247 -29.81037264 10.45289718 -25.72265625 6.046875 C-18.15072359 -0.7622137 -10.16007363 -3.47223913 0 0 Z " fill="#000000" transform="translate(65.62890625,61.8984375)"/>
<path d="M0 0 C4.86551135 3.13903958 9.07088005 7.98077356 11.1796875 13.40625 C11.515625 16.359375 11.515625 16.359375 11.5546875 19.65625 C11.58304688 20.73390625 11.61140625 21.8115625 11.640625 22.921875 C10.62325793 30.61248027 6.32051677 35.85301527 0.8828125 41.09375 C0.28917908 41.68172363 -0.30445435 42.26969727 -0.91607666 42.87548828 C-2.79154572 44.72878546 -4.6805071 46.56758562 -6.5703125 48.40625 C-7.85378787 49.66963563 -9.1363492 50.93395056 -10.41796875 52.19921875 C-13.54162732 55.27906507 -16.67745698 58.34600087 -19.8203125 61.40625 C-21.8003125 59.75625 -23.7803125 58.10625 -25.8203125 56.40625 C-20.01896628 49.34874451 -13.49219209 43.10286805 -6.90039062 36.7890625 C0.4289589 29.68828911 0.4289589 29.68828911 3.4296875 20.18359375 C2.70651024 14.86146107 1.03445236 12.17136917 -2.8203125 8.40625 C-6.37602792 5.70881072 -10.53307508 5.97916888 -14.8203125 6.40625 C-18.18852522 7.30422113 -18.18852522 7.30422113 -20.8203125 8.40625 C-22.1403125 7.08625 -23.4603125 5.76625 -24.8203125 4.40625 C-24.15948236 2.01074075 -23.36101682 0.71540869 -21.1875 -0.52734375 C-13.67326337 -3.60670739 -7.27589413 -3.5246546 0 0 Z " fill="#000000" transform="translate(127.8203125,36.59375)"/>
<path d="M0 0 C3.35999018 1.45868754 5.55203106 3.30868948 8.12597656 5.89892578 C8.92650452 6.6996048 9.72703247 7.50028381 10.55181885 8.32522583 C11.83327789 9.62216873 11.83327789 9.62216873 13.140625 10.9453125 C14.02280701 11.8303244 14.90498901 12.7153363 15.81390381 13.62716675 C18.15194543 15.97450131 20.48555874 18.32606785 22.81713867 20.67980957 C25.19996526 23.08313927 27.58850348 25.48077767 29.9765625 27.87890625 C34.65631862 32.58071467 39.33031867 37.28818664 44 42 C42.48601545 45.78496138 41.9855604 46.0072198 38 48 C24.14 34.14 10.28 20.28 -4 6 C-2 2 -2 2 0 0 Z " fill="#000000" transform="translate(80,76)"/>
<path d="M0 0 C2.475 1.98 2.475 1.98 5 4 C4.42567339 7.7399239 2.90672795 9.48141051 0.27807617 12.1418457 C-0.50976761 12.94560135 -1.29761139 13.74935699 -2.10932922 14.57746887 C-2.96657089 15.43491196 -3.82381256 16.29235504 -4.70703125 17.17578125 C-5.58397141 18.06033493 -6.46091156 18.94488861 -7.36442566 19.85624695 C-9.22103907 21.72366872 -11.08063457 23.58747374 -12.94555664 25.4465332 C-15.3367898 27.8318568 -17.70923149 30.23496016 -20.0772295 32.64332294 C-22.33825424 34.93636676 -24.61739718 37.21125144 -26.89453125 39.48828125 C-27.74570023 40.35584549 -28.5968692 41.22340973 -29.47383118 42.11726379 C-30.27113144 42.90525864 -31.0684317 43.69325348 -31.88989258 44.50512695 C-32.58858963 45.20587845 -33.28728668 45.90662994 -34.00715637 46.62861633 C-36 48 -36 48 -38.06938171 47.96842957 C-40 47 -40 47 -43 43 C-28.81 28.81 -14.62 14.62 0 0 Z " fill="#000000" transform="translate(145,102)"/>
<path d="M0 0 C1.93061829 0.96842957 1.93061829 0.96842957 4.93061829 4.96842957 C-9.25938171 19.15842957 -23.44938171 33.34842957 -38.06938171 47.96842957 C-39.71938171 46.64842957 -41.36938171 45.32842957 -43.06938171 43.96842957 C-42.4950551 40.22850567 -40.97610967 38.48701906 -38.34745789 35.82658386 C-37.55961411 35.02282822 -36.77177032 34.21907257 -35.96005249 33.39096069 C-35.10281082 32.53351761 -34.24556915 31.67607452 -33.36235046 30.79264832 C-32.48541031 29.90809464 -31.60847015 29.02354095 -30.70495605 28.11218262 C-28.84834264 26.24476085 -26.98874714 24.38095583 -25.12382507 22.52189636 C-22.73259191 20.13657276 -20.36015023 17.73346941 -17.99215221 15.32510662 C-15.73112748 13.0320628 -13.45198453 10.75717812 -11.17485046 8.48014832 C-10.32368149 7.61258408 -9.47251251 6.74501984 -8.59555054 5.85116577 C-7.39960014 4.66917351 -7.39960014 4.66917351 -6.17948914 3.46330261 C-5.13144356 2.41217537 -5.13144356 2.41217537 -4.06222534 1.33981323 C-2.06938171 -0.03157043 -2.06938171 -0.03157043 0 0 Z " fill="#000000" transform="translate(93.06938171386719,50.03157043457031)"/>
<path d="M0 0 C3.14616662 1.397846 5.3092223 3.04415262 7.75878906 5.45239258 C8.47923401 6.15685013 9.19967896 6.86130768 9.94195557 7.58711243 C11.09217194 8.72928474 11.09217194 8.72928474 12.265625 9.89453125 C13.05902283 10.6789006 13.85242065 11.46326996 14.66986084 12.27140808 C16.34350436 13.93055471 18.01435911 15.59251853 19.68261719 17.25708008 C22.24216676 19.80470326 24.81976686 22.3330798 27.3984375 24.86132812 C29.02197996 26.47540997 30.64441421 28.09060745 32.265625 29.70703125 C33.04053284 30.46240677 33.81544067 31.21778229 34.61383057 31.99604797 C35.67558502 33.06691902 35.67558502 33.06691902 36.75878906 34.15942383 C37.38626038 34.78182449 38.01373169 35.40422516 38.66021729 36.04548645 C40.35940977 38.5243173 40.33622057 40.05419915 40 43 C39 44 39 44 36.69099426 44.28051758 C33.2750803 43.92443213 32.33084306 42.93838224 29.9440918 40.51171875 C29.18368088 39.75093018 28.42326996 38.9901416 27.63981628 38.20629883 C26.8344191 37.37509521 26.02902191 36.5438916 25.19921875 35.6875 C24.36284378 34.84405029 23.52646881 34.00060059 22.66474915 33.1315918 C19.9937209 30.43255521 17.34058797 27.71666228 14.6875 25 C12.88070864 23.16813453 11.07277941 21.33739061 9.26367188 19.5078125 C4.82915795 15.01814326 0.40921767 10.51450715 -4 6 C-2.84826645 3.53199953 -1.95216435 1.95216435 0 0 Z " fill="#000000" transform="translate(80,129)"/>
<path d="M0 0 C3.41591396 0.35608545 4.3601512 1.34213534 6.74690247 3.76879883 C7.50731339 4.5295874 8.2677243 5.29037598 9.05117798 6.07421875 C9.85657516 6.90542236 10.66197235 7.73662598 11.49177551 8.59301758 C12.32815048 9.43646729 13.16452545 10.27991699 14.02624512 11.14892578 C16.69727337 13.84796237 19.3504063 16.5638553 22.00349426 19.28051758 C23.81028563 21.11238304 25.61821485 22.94312697 27.42732239 24.77270508 C31.86183631 29.26237432 36.28177659 33.76601043 40.69099426 38.28051758 C39.64224429 40.90239252 39.04168113 42.07423119 36.56599426 43.53051758 C35.94724426 43.77801758 35.32849426 44.02551758 34.69099426 44.28051758 C29.2617389 38.97788589 23.85206361 33.65586627 18.4556427 28.31982422 C16.61701363 26.50636183 14.77392512 24.69740935 12.92634583 22.89306641 C10.27357132 20.30084127 7.63718225 17.69289581 5.00349426 15.08129883 C4.17229065 14.27590164 3.34108704 13.47050446 2.48469543 12.64070129 C1.34351257 11.50008492 1.34351257 11.50008492 0.17927551 10.33642578 C-0.49579041 9.67246292 -1.17085632 9.00850006 -1.86637878 8.32441711 C-3.65616652 5.78866362 -3.67844711 4.32147587 -3.30900574 1.28051758 C-2.30900574 0.28051758 -2.30900574 0.28051758 0 0 Z " fill="#000000" transform="translate(83.30900573730469,26.719482421875)"/>
<path d="M0 0 C1.98 1.65 3.96 3.3 6 5 C4.03044032 7.36067791 2.02613621 9.68771244 0 12 C-0.51433594 12.59425781 -1.02867188 13.18851563 -1.55859375 13.80078125 C-3.90032721 16.34931714 -5.32616896 17.89518184 -8.8125 18.4375 C-11 18 -11 18 -12 17 C-12.4375 14.83203125 -12.4375 14.83203125 -12 12 C-10.25383699 9.62772578 -8.1556837 7.68539154 -6 5.6875 C-5.14148437 4.86282227 -5.14148437 4.86282227 -4.265625 4.02148438 C-2.85476051 2.6694059 -1.42879488 1.33311665 0 0 Z " fill="#000000" transform="translate(39,102)"/>
<path d="M0 0 C2.1875 0.4375 2.1875 0.4375 3.1875 1.4375 C3.625 3.60546875 3.625 3.60546875 3.1875 6.4375 C1.44133699 8.80977422 -0.6568163 10.75210846 -2.8125 12.75 C-3.38484375 13.29978516 -3.9571875 13.84957031 -4.546875 14.41601562 C-5.95773949 15.7680941 -7.38370512 17.10438335 -8.8125 18.4375 C-10.7925 16.7875 -12.7725 15.1375 -14.8125 13.4375 C-12.84294032 11.07682209 -10.83863621 8.74978756 -8.8125 6.4375 C-8.29816406 5.84324219 -7.78382813 5.24898438 -7.25390625 4.63671875 C-4.91217279 2.08818286 -3.48633104 0.54231816 0 0 Z " fill="#000000" transform="translate(169.8125,79.5625)"/>
</svg>
